<?xml version="1.0" encoding="UTF-8"?>
<svg width="386px" height="72px" viewBox="0 0 386 72" version="1.1" xmlns="http://www.w3.org/2000/svg" xmlns:xlink="http://www.w3.org/1999/xlink">
    <!-- Generator: Sketch 60.1 (88133) - https://sketch.com -->
    <title>discord-logo</title>
    <desc>Created with Sketch.</desc>
    <defs>
        <path d="M0.469565217,1.33043478 L0.469565217,30.5217391 L17.7652174,46.0956522 L17.7652174,17.7652174 L27,17.7652174 C32.8695652,17.7652174 35.7652174,20.5826087 35.7652174,25.1217391 L35.7652174,46.8 C35.7652174,51.3391304 33.026087,54.3913043 27,54.3913043 L0.391304348,54.3913043 L0.391304348,70.9043478 L26.373913,70.9043478 C40.3043478,70.9826087 53.373913,64.0173913 53.373913,48.0521739 L53.373913,24.7304348 C53.4521739,8.45217391 40.3826087,1.33043478 26.4521739,1.33043478 L0.469565217,1.33043478 Z M162.626087,24.1043478 C162.626087,15.4956522 178.121739,13.5391304 182.817391,22.1478261 L197.13913,16.3565217 C191.504348,3.99130435 181.252174,0.391304348 172.721739,0.391304348 C158.791304,0.391304348 145.017391,8.45217391 145.017391,24.1043478 L145.017391,48.0521739 C145.017391,63.8608696 158.791304,71.7652174 172.408696,71.7652174 C181.173913,71.7652174 191.66087,67.4608696 197.452174,56.1913043 L182.113043,49.1478261 C178.356522,58.773913 162.626087,56.426087 162.626087,48.0521739 L162.626087,24.1043478 Z M106.043478,20.8956522 C106.356522,12.8347826 118.8,12.5217391 126.078261,20.2695652 L137.582609,11.426087 C130.382609,2.66086957 122.243478,0.313043478 113.869565,0.313043478 C101.113043,0.313043478 88.7478261,7.51304348 88.7478261,21.1304348 C88.7478261,34.3565217 98.9217391,41.4782609 110.113043,43.2 C115.826087,43.9826087 122.165217,46.2521739 122.008696,50.1652174 C121.53913,57.6 106.2,57.2086957 99.2347826,48.7565217 L88.1217391,59.1652174 C94.6173913,67.5391304 103.46087,71.7652174 111.756522,71.7652174 C124.513043,71.7652174 138.678261,64.4086957 139.226087,50.9478261 C140.008696,33.9652174 127.643478,29.6608696 115.278261,27.3913043 C109.878261,26.2173913 106.278261,24.2608696 106.043478,20.8956522 Z M62.8434783,70.826087 L80.373913,70.826087 L80.373913,1.33043478 L62.8434783,1.33043478 L62.8434783,70.826087 Z M358.434783,1.33043478 L332.452174,1.33043478 L332.452174,30.5217391 L349.747826,46.0956522 L349.747826,17.7652174 L358.982609,17.7652174 C364.852174,17.7652174 367.747826,20.5826087 367.747826,25.1217391 L367.747826,46.8 C367.747826,51.3391304 365.008696,54.3913043 358.982609,54.3913043 L332.373913,54.3913043 L332.373913,70.9049997 L358.434783,70.9049997 C372.365217,70.9826087 385.434783,64.0173913 385.434783,48.0521739 L385.434783,24.7304348 C385.434783,8.45217391 372.365217,1.33043478 358.434783,1.33043478 Z M202.226087,24.2608696 L202.226087,47.973913 C202.226087,63.8608696 216.626087,71.8434783 231.104348,71.8434783 C245.504348,71.8434783 259.826087,63.8608696 259.826087,47.973913 L259.826087,24.2608696 C259.826087,8.29565217 245.347826,0.391304348 230.947826,0.391304348 C216.547826,0.391304348 202.226087,8.2173913 202.226087,24.2608696 Z M242.217391,47.973913 C242.217391,52.9826087 236.582609,55.5652174 231.026087,55.5652174 C225.391304,55.5652174 219.756522,53.1391304 219.756522,47.973913 L219.756522,24.2608696 C219.756522,19.173913 225.234783,16.4347826 230.713043,16.4347826 C236.426087,16.4347826 242.217391,18.8608696 242.217391,24.2608696 L242.217391,47.973913 Z M322.747826,24.2608696 C322.356522,7.9826087 311.243478,1.40869565 296.921739,1.40869565 L269.13913,1.40869565 L269.13913,70.9043478 L286.904348,70.9043478 L286.904348,48.8347826 L290.034783,48.8347826 L306.156522,70.9043478 L328.069565,70.9043478 L309.130435,47.0347826 C317.504348,44.373913 322.747826,37.0956522 322.747826,24.2608696 Z M297.234783,33.6521739 L286.904348,33.6521739 L286.904348,17.7652174 L297.234783,17.7652174 C308.269565,17.7652174 308.269565,33.6521739 297.234783,33.6521739 Z" id="path-1"></path>
    </defs>
    <g id="Page-1" stroke="none" stroke-width="1" fill="none" fill-rule="evenodd">
        <g id="Desktop-HD" transform="translate(-410.000000, -276.000000)" fill-rule="nonzero">
            <g id="discord-logo-1" transform="translate(410.000000, 276.000000)">
                <g id="discord-logo">
                    <use fill="#7289DA" xlink:href="#path-1"></use>
                    <use fill="#FFFFFF" xlink:href="#path-1"></use>
                </g>
            </g>
        </g>
    </g>
</svg>