<?xml version="1.0" encoding="utf-8"?>
<!-- Generator: Adobe Illustrator 25.1.0, SVG Export Plug-In . SVG Version: 6.00 Build 0)  -->
<!DOCTYPE svg PUBLIC "-//W3C//DTD SVG 1.1//EN" "http://www.w3.org/Graphics/SVG/1.1/DTD/svg11.dtd" [
	<!ENTITY ns_extend "http://ns.adobe.com/Extensibility/1.0/">
	<!ENTITY ns_ai "http://ns.adobe.com/AdobeIllustrator/10.0/">
	<!ENTITY ns_graphs "http://ns.adobe.com/Graphs/1.0/">
	<!ENTITY ns_vars "http://ns.adobe.com/Variables/1.0/">
	<!ENTITY ns_imrep "http://ns.adobe.com/ImageReplacement/1.0/">
	<!ENTITY ns_sfw "http://ns.adobe.com/SaveForWeb/1.0/">
	<!ENTITY ns_custom "http://ns.adobe.com/GenericCustomNamespace/1.0/">
	<!ENTITY ns_adobe_xpath "http://ns.adobe.com/XPath/1.0/">
]>
<svg version="1.1" id="Layer_1" xmlns:x="&ns_extend;" xmlns:i="&ns_ai;" xmlns:graph="&ns_graphs;"
	 xmlns="http://www.w3.org/2000/svg" xmlns:xlink="http://www.w3.org/1999/xlink" x="0px" y="0px" width="512px" height="193.946px"
	 viewBox="0 0 512 193.946" enable-background="new 0 0 512 193.946" xml:space="preserve">
<metadata>
	<sfw  xmlns="&ns_sfw;">
		<slices></slices>
		<sliceSourceBounds  bottomLeftOrigin="true" height="165.11" width="481.289" x="-240.645" y="-742.776"></sliceSourceBounds>
		<optimizationSettings>
			<targetSettings  fileFormat="PNG24Format" targetSettingsID="0">
				<PNG24Format  filtered="false" interlaced="false" matteColor="#FFFFFF" noMatteColor="false" transparency="true">
					</PNG24Format>
			</targetSettings>
		</optimizationSettings>
	</sfw>
</metadata>
<g>
	<g>
		<g>
			<path fill="#FFFFFF" d="M97.911,14.418c-45.521,0-82.555,37.034-82.555,82.555c0,45.521,37.034,82.555,82.555,82.555
				c45.52,0,82.553-37.034,82.553-82.555C180.463,51.452,143.431,14.418,97.911,14.418z M97.911,162.023
				c-35.869,0-65.051-29.181-65.051-65.049c0-35.869,29.181-65.051,65.051-65.051c35.868,0,65.048,29.182,65.048,65.051
				C162.959,132.842,133.778,162.023,97.911,162.023z"/>
		</g>
		<g>
			<g>
				<path fill="#FFFFFF" d="M98.607,72.712h0.006h0.002h0.002c6.411,0.003,12.437,2.503,16.969,7.039
					c2.299,2.301,4.07,4.988,5.26,7.912l10.944-10.956c1.015-1.017,1.777-2.034,2.304-3.056c0.835-1.419,1.318-3.067,1.318-4.831
					c0-5.294-4.29-9.583-9.581-9.583l-65.588,0.066v19.295l22.655-0.009C87.113,74.933,92.604,72.712,98.607,72.712z"/>
				<path fill="#FFFFFF" d="M98.613,83.971c-0.002,0-0.004,0-0.006,0c-7.037,0-12.742,5.704-12.745,12.738
					c-0.003,7.039,5.701,12.749,12.737,12.753c0.003,0,0.006,0,0.009,0c7.033,0,12.738-5.704,12.741-12.739
					C111.353,89.684,105.648,83.973,98.613,83.971z"/>
				<path fill="#FFFFFF" d="M98.593,120.72c-10.272-0.006-19.051-6.5-22.466-15.595l-12.099,12.112
					c-1.012,1.017-1.775,2.034-2.305,3.057c-0.83,1.42-1.317,3.067-1.317,4.831c0,5.292,4.291,9.583,9.583,9.583l65.356-0.066
					l0.029-19.296l-21.667,0.009C109.576,118.706,104.317,120.72,98.593,120.72z"/>
			</g>
		</g>
	</g>
	<g>
		<path fill="#FFFFFF" d="M220.999,124.817c-0.321,1.286,0.321,2.036,1.392,2.036h20.883l-2.461,5.463
			c-0.536,1.07-1.607,2.142-4.07,2.142H208.79l22.063-65.435c0.214-0.965-0.213-1.821-1.499-1.821h-8.676
			c-2.463,0-3.641-1.178-4.176-2.142c-0.322-0.643-1.607-3.642-2.464-5.569h29.13L220.999,124.817z"/>
		<path fill="#FFFFFF" d="M306.564,126.853c-0.857,1.929-2.142,4.928-2.463,5.57c-0.536,0.963-1.715,2.035-4.177,2.035h-17.137
			V61.632c0.108-1.177,1.073-2.142,2.356-2.142h20.029l-2.573,5.569c-0.428,0.964-1.604,2.142-4.069,2.142h-6.211
			c-1.07,0-1.82,0.75-1.82,1.821v22.275h11.565c-0.854,1.929-2.14,5.035-2.462,5.676c-0.536,0.962-1.607,2.035-4.068,2.035h-3.215
			c-0.963,0-1.82,0.856-1.82,1.821v26.025H306.564z"/>
		<path fill="#FFFFFF" d="M368.031,134.458h-3.534c-4.176,0-4.817-3.321-5.14-4.82l-8.247-37.054v41.874h-7.709V59.49h3.534
			c4.283,0,5.033,2.034,5.462,4.176l7.925,38.984V59.49h7.709V134.458z"/>
		<path fill="#FFFFFF" d="M413.757,124.817c-0.321,1.286,0.32,2.036,1.392,2.036h20.882l-2.463,5.463
			c-0.536,1.07-1.605,2.142-4.068,2.142h-27.953l22.062-65.435c0.214-0.965-0.214-1.821-1.499-1.821h-8.674
			c-2.463,0-3.641-1.178-4.176-2.142c-0.321-0.643-1.607-3.642-2.465-5.569h29.132L413.757,124.817z"/>
		<path fill="#FFFFFF" d="M487.326,58.739c5.141,0.216,9.319,4.392,9.319,9.533v57.511c-0.108,5.141-4.178,9.209-9.319,9.423h-5.89
			c-5.248,0-9.532-4.282-9.637-9.423V68.272c0-5.248,4.282-9.533,9.637-9.533H487.326z M484.756,128.459
			c2.249,0,4.071-1.822,4.071-4.177V69.663c0-2.356-1.823-4.177-4.071-4.177h-1.178c-2.248,0.107-4.069,1.929-4.069,4.177v54.618
			c0,2.248,1.82,4.069,4.069,4.177H484.756z"/>
	</g>
</g>
</svg>
